<svg xmlns="http://www.w3.org/2000/svg" xmlns:xlink="http://www.w3.org/1999/xlink" width="600" zoomAndPan="magnify" viewBox="0 0 450 449.999984" height="600" preserveAspectRatio="xMidYMid meet" version="1.0"><defs><g/><clipPath id="id1"><path d="M 146.265625 99.386719 L 303.765625 99.386719 L 303.765625 269.636719 L 146.265625 269.636719 Z M 146.265625 99.386719 " clip-rule="nonzero"/></clipPath></defs><g clip-path="url(#id1)"><path fill="#000000" d="M 300.890625 118.816406 C 285.878906 118.816406 272.765625 125.410156 259.992188 133.445312 C 256.398438 131.375 252.886719 130.445312 249.589844 130.445312 C 244.21875 130.445312 239.4375 132.941406 235.972656 137.125 C 232.332031 141.523438 230.640625 146.089844 228.90625 151.082031 C 226.160156 146.980469 223.789062 142.371094 221.761719 138.269531 C 211.441406 117.164062 193.210938 104.648438 165.976562 99.996094 L 163.015625 99.488281 L 162.886719 102.492188 C 162.59375 109.171875 163.351562 116.191406 165.128906 123.296875 C 161.535156 122.707031 157.855469 122.410156 154.050781 122.410156 C 151.511719 122.410156 148.890625 122.535156 146.265625 122.832031 C 153.542969 149.898438 176.296875 180.9375 204.800781 188.972656 C 191.476562 213.164062 187.671875 246.277344 216.644531 267.757812 L 219.011719 269.535156 L 220.492188 266.957031 C 232.078125 246.867188 226.453125 233.125 218.039062 218.828125 C 226.203125 216.292969 244.050781 208.765625 252.085938 189.863281 C 255.46875 181.910156 256.609375 172.945312 255.382812 163.9375 C 257.03125 156.070312 259.148438 148.628906 263.417969 142.707031 C 276.359375 124.945312 303.765625 118.898438 303.765625 118.898438 C 302.792969 118.855469 301.820312 118.816406 300.890625 118.816406 Z M 217.023438 140.59375 C 219.601562 145.835938 222.734375 151.886719 226.625 157.003906 C 226.625 157.042969 226.667969 157.042969 226.667969 157.042969 C 226.539062 157.296875 226.453125 157.550781 226.328125 157.847656 C 225.863281 158.949219 225.355469 160.046875 224.804688 161.148438 C 221.632812 158.523438 219.773438 156.496094 215.332031 152.433594 C 210.003906 147.570312 207.253906 145.035156 205.816406 143.722656 C 195.917969 134.886719 184.078125 127.695312 170.5 124.355469 C 170.585938 123.972656 170.585938 123.550781 170.5 123.085938 C 168.9375 117.125 168.175781 111.328125 168.089844 105.703125 C 191.859375 110.484375 207.886719 121.902344 217.023438 140.59375 Z M 152.484375 127.144531 C 152.992188 127.144531 153.5 127.144531 154.007812 127.144531 C 158.363281 127.144531 162.71875 127.570312 166.992188 128.457031 C 179.550781 131.035156 191.5625 137.378906 202.644531 147.316406 C 203.449219 148.035156 204.714844 149.222656 206.703125 150.996094 C 208.101562 152.308594 209.875 153.914062 212.117188 155.945312 C 213.808594 157.511719 215.121094 158.734375 216.261719 159.835938 C 218.378906 161.824219 220.027344 163.429688 222.523438 165.417969 C 227.34375 169.308594 230.261719 171.632812 234.320312 172.777344 C 235.292969 173.03125 237.875 173.792969 241.003906 173.792969 C 242.316406 173.792969 243.582031 173.664062 244.769531 173.410156 C 243.921875 175.101562 242.78125 176.964844 241.089844 178.65625 C 236.773438 183.136719 231.402344 184.617188 226.707031 185.464844 C 224.042969 185.929688 221.335938 186.183594 218.628906 186.183594 C 214.953125 186.183594 211.1875 185.71875 207.464844 184.785156 C 207.421875 184.785156 207.378906 184.785156 207.339844 184.746094 C 207.296875 184.746094 207.253906 184.703125 207.210938 184.703125 C 181.707031 178.273438 160.816406 151.292969 152.484375 127.144531 Z M 217.363281 261.585938 C 196.425781 244.289062 197.019531 219.464844 205.730469 199.039062 C 206.449219 204.621094 208.101562 211.640625 211.738281 218.363281 C 212.03125 218.957031 212.371094 219.546875 212.753906 220.140625 C 220.535156 233.292969 225.863281 244.835938 217.363281 261.585938 Z M 215.417969 214.050781 C 210.765625 204.28125 210.382812 194.132812 210.46875 190.242188 C 213.175781 190.707031 215.925781 190.960938 218.714844 190.960938 C 221.632812 190.960938 224.636719 190.707031 227.640625 190.15625 C 231.65625 189.4375 238.847656 187.875 244.554688 181.953125 C 247.855469 178.527344 249.546875 174.765625 250.519531 171.972656 C 250.394531 176.667969 249.589844 182.121094 247.179688 187.746094 C 239.609375 205.59375 222.140625 212.148438 215.417969 214.050781 Z M 259.570312 139.917969 C 254.792969 146.515625 252.507812 154.675781 250.941406 161.992188 C 250.605469 162.289062 250.351562 162.667969 250.222656 163.132812 C 246.882812 167.53125 243.667969 168.082031 241.46875 168.082031 C 238.042969 168.082031 233.855469 166.515625 229.035156 163.347656 C 229.628906 162.160156 230.175781 160.976562 230.726562 159.707031 C 231.742188 157.296875 232.546875 155.058594 233.304688 152.898438 C 235 148.121094 236.476562 143.976562 239.652344 140.171875 C 241.554688 137.886719 244.808594 135.179688 249.632812 135.179688 C 252.210938 135.179688 254.917969 135.984375 257.667969 137.550781 C 258.386719 137.972656 259.230469 138.183594 260.035156 138.183594 C 260.375 138.183594 260.671875 138.140625 261.007812 138.097656 C 260.5 138.648438 260.035156 139.28125 259.570312 139.917969 Z M 259.570312 139.917969 " fill-opacity="1" fill-rule="nonzero"/></g><g fill="#000000" fill-opacity="1"><g transform="translate(3.152352, 335.042201)"><g><path d="M 2.109375 0 L 2.109375 -1.109375 L 6.96875 -1.90625 L 6.96875 -40.375 L 2.109375 -41.109375 L 2.109375 -42.28125 L 17.65625 -42.28125 L 17.65625 -41.109375 L 12.78125 -40.375 L 12.78125 -23.046875 L 32.875 -23.046875 L 32.875 -40.375 L 27.953125 -41.109375 L 27.953125 -42.28125 L 43.59375 -42.28125 L 43.59375 -41.109375 L 38.6875 -40.375 L 38.6875 -1.90625 L 43.59375 -1.109375 L 43.59375 0 L 27.953125 0 L 27.953125 -1.109375 L 32.875 -1.90625 L 32.875 -21.71875 L 12.78125 -21.71875 L 12.78125 -1.90625 L 17.65625 -1.109375 L 17.65625 0 Z M 2.109375 0 "/></g></g></g><g fill="#000000" fill-opacity="1"><g transform="translate(48.848629, 335.042201)"><g><path d="M 21.25 1.0625 C 16.0625 1.0625 12.269531 -0.0859375 9.875 -2.390625 C 7.476562 -4.703125 6.28125 -7.765625 6.28125 -11.578125 L 6.28125 -40.375 L 1.421875 -41.109375 L 1.421875 -42.28125 L 16.96875 -42.28125 L 16.96875 -41.109375 L 12.09375 -40.375 L 12.09375 -11.578125 C 12.09375 -8.117188 13.0625 -5.460938 15 -3.609375 C 16.9375 -1.765625 19.878906 -0.84375 23.828125 -0.84375 C 31.296875 -0.84375 35.03125 -4.421875 35.03125 -11.578125 L 35.03125 -39.046875 L 30.125 -41.109375 L 30.125 -42.28125 L 41.375 -42.28125 L 41.375 -41.109375 L 36.296875 -39.046875 L 36.296875 -11.578125 C 36.296875 -7.347656 35.113281 -4.179688 32.75 -2.078125 C 30.394531 0.015625 26.5625 1.0625 21.25 1.0625 Z M 21.25 1.0625 "/></g></g></g><g fill="#000000" fill-opacity="1"><g transform="translate(91.586541, 335.042201)"><g><path d="M 24.09375 0.53125 L 8.34375 -40.375 L 8.34375 -3.21875 L 13.421875 -1.109375 L 13.421875 0 L 2.109375 0 L 2.109375 -1.109375 L 7.078125 -3.21875 L 7.078125 -40.375 L 2.21875 -41.109375 L 2.21875 -42.28125 L 13.890625 -42.28125 L 27.15625 -8.34375 L 40.6875 -42.28125 L 51.359375 -42.28125 L 51.359375 -41.109375 L 46.5 -40.375 L 46.5 -1.90625 L 51.359375 -1.109375 L 51.359375 0 L 35.828125 0 L 35.828125 -1.109375 L 40.6875 -1.90625 L 40.6875 -38.78125 L 25.046875 0.53125 Z M 24.09375 0.53125 "/></g></g></g><g fill="#000000" fill-opacity="1"><g transform="translate(145.04855, 335.042201)"><g><path d="M 24.09375 0.53125 L 8.34375 -40.375 L 8.34375 -3.21875 L 13.421875 -1.109375 L 13.421875 0 L 2.109375 0 L 2.109375 -1.109375 L 7.078125 -3.21875 L 7.078125 -40.375 L 2.21875 -41.109375 L 2.21875 -42.28125 L 13.890625 -42.28125 L 27.15625 -8.34375 L 40.6875 -42.28125 L 51.359375 -42.28125 L 51.359375 -41.109375 L 46.5 -40.375 L 46.5 -1.90625 L 51.359375 -1.109375 L 51.359375 0 L 35.828125 0 L 35.828125 -1.109375 L 40.6875 -1.90625 L 40.6875 -38.78125 L 25.046875 0.53125 Z M 24.09375 0.53125 "/></g></g></g><g fill="#000000" fill-opacity="1"><g transform="translate(198.510559, 335.042201)"><g><path d="M 2.109375 0 L 2.109375 -1.109375 L 6.96875 -1.90625 L 6.96875 -40.375 L 2.109375 -41.109375 L 2.109375 -42.28125 L 17.65625 -42.28125 L 17.65625 -41.109375 L 12.78125 -40.375 L 12.78125 -1.90625 L 17.65625 -1.109375 L 17.65625 0 Z M 2.109375 0 "/></g></g></g><g fill="#000000" fill-opacity="1"><g transform="translate(218.268255, 335.042201)"><g><path d="M 2.265625 0 L 2.265625 -1.109375 L 7.1875 -3.21875 L 7.1875 -39.046875 L 2.265625 -41.109375 L 2.265625 -42.28125 L 12.09375 -42.28125 L 34.875 -10.359375 L 34.875 -39.046875 L 29.96875 -41.109375 L 29.96875 -42.28125 L 41.21875 -42.28125 L 41.21875 -41.109375 L 36.203125 -39.046875 L 36.203125 0 L 34.875 0 L 8.515625 -37.046875 L 8.515625 -3.21875 L 13.578125 -1.109375 L 13.578125 0 Z M 2.265625 0 "/></g></g></g><g fill="#000000" fill-opacity="1"><g transform="translate(261.270297, 335.042201)"><g><path d="M 21.984375 1.0625 C 18.140625 1.0625 14.773438 0.128906 11.890625 -1.734375 C 9.003906 -3.609375 6.773438 -6.21875 5.203125 -9.5625 C 3.640625 -12.90625 2.859375 -16.765625 2.859375 -21.140625 C 2.859375 -25.503906 3.6875 -29.359375 5.34375 -32.703125 C 7 -36.054688 9.3125 -38.664062 12.28125 -40.53125 C 15.257812 -42.394531 18.671875 -43.328125 22.515625 -43.328125 C 26.140625 -43.328125 29.203125 -42.410156 31.703125 -40.578125 L 34.9375 -43.328125 L 36.046875 -43.328125 L 36.046875 -30.234375 L 34.9375 -30.234375 L 31.4375 -38.953125 C 28.90625 -41.054688 25.929688 -42.109375 22.515625 -42.109375 C 20.046875 -42.109375 17.832031 -41.472656 15.875 -40.203125 C 13.925781 -38.941406 12.394531 -37.09375 11.28125 -34.65625 C 10.175781 -32.226562 9.625 -29.34375 9.625 -26 L 9.625 -16.328125 C 9.625 -12.984375 10.140625 -10.09375 11.171875 -7.65625 C 12.210938 -5.226562 13.65625 -3.367188 15.5 -2.078125 C 17.351562 -0.796875 19.515625 -0.15625 21.984375 -0.15625 C 25.015625 -0.15625 27.363281 -1.085938 29.03125 -2.953125 C 30.707031 -4.828125 31.546875 -7.332031 31.546875 -10.46875 L 31.546875 -15.375 L 26.640625 -16.125 L 26.640625 -17.28125 L 42.4375 -17.28125 L 42.4375 -16.125 L 37.515625 -15.375 L 37.515625 -10.46875 C 37.515625 -8.457031 36.96875 -6.578125 35.875 -4.828125 C 34.789062 -3.085938 33.082031 -1.671875 30.75 -0.578125 C 28.425781 0.515625 25.503906 1.0625 21.984375 1.0625 Z M 21.984375 1.0625 "/></g></g></g><g fill="#000000" fill-opacity="1"><g transform="translate(304.219512, 335.042201)"><g><path d="M 2.109375 -1.109375 L 6.96875 -1.90625 L 6.96875 -40.375 L 2.109375 -41.109375 L 2.109375 -42.28125 L 18.234375 -42.28125 C 22.035156 -42.28125 25.0625 -41.925781 27.3125 -41.21875 C 29.570312 -40.507812 31.210938 -39.441406 32.234375 -38.015625 C 33.253906 -36.585938 33.765625 -34.710938 33.765625 -32.390625 C 33.765625 -27.316406 30.5625 -24.078125 24.15625 -22.671875 L 24.15625 -22.40625 C 28.0625 -21.875 31.097656 -20.707031 33.265625 -18.90625 C 35.429688 -17.113281 36.515625 -14.617188 36.515625 -11.421875 C 36.515625 -7.535156 35.09375 -4.660156 32.25 -2.796875 C 29.414062 -0.929688 25.585938 0 20.765625 0 L 2.109375 0 Z M 18.65625 -22.828125 C 21.46875 -22.828125 23.628906 -23.617188 25.140625 -25.203125 C 26.660156 -26.785156 27.421875 -29.039062 27.421875 -31.96875 L 27.421875 -32.28125 C 27.421875 -38.0625 24.359375 -40.953125 18.234375 -40.953125 L 12.78125 -40.953125 L 12.78125 -22.828125 Z M 20.765625 -1.265625 C 23.765625 -1.265625 26.09375 -2.132812 27.75 -3.875 C 29.40625 -5.625 30.234375 -8.117188 30.234375 -11.359375 L 30.234375 -11.9375 C 30.234375 -15.144531 29.410156 -17.539062 27.765625 -19.125 C 26.128906 -20.707031 23.796875 -21.5 20.765625 -21.5 L 12.78125 -21.5 L 12.78125 -1.265625 Z M 20.765625 -1.265625 "/></g></g></g><g fill="#000000" fill-opacity="1"><g transform="translate(343.576427, 335.042201)"><g><path d="M 2.109375 0 L 2.109375 -1.109375 L 6.96875 -1.90625 L 6.96875 -40.375 L 2.109375 -41.109375 L 2.109375 -42.28125 L 17.65625 -42.28125 L 17.65625 -41.109375 L 12.78125 -40.375 L 12.78125 -1.90625 L 17.65625 -1.109375 L 17.65625 0 Z M 2.109375 0 "/></g></g></g><g fill="#000000" fill-opacity="1"><g transform="translate(363.334124, 335.042201)"><g><path d="M 32.8125 0.53125 C 30.84375 0.53125 29.363281 0.0546875 28.375 -0.890625 C 27.382812 -1.847656 26.71875 -3.472656 26.375 -5.765625 L 25.359375 -12.84375 C 25.015625 -15.238281 24.195312 -17.113281 22.90625 -18.46875 C 21.625 -19.820312 19.625 -20.5 16.90625 -20.5 L 12.78125 -20.5 L 12.78125 -1.90625 L 17.65625 -1.109375 L 17.65625 0 L 2.109375 0 L 2.109375 -1.109375 L 6.96875 -1.90625 L 6.96875 -40.375 L 2.109375 -41.109375 L 2.109375 -42.28125 L 16.90625 -42.28125 C 22.65625 -42.28125 26.8125 -41.378906 29.375 -39.578125 C 31.945312 -37.785156 33.234375 -35.054688 33.234375 -31.390625 C 33.234375 -25.328125 29.570312 -21.820312 22.25 -20.875 L 22.25 -20.5625 C 24.957031 -20.164062 27.128906 -19.191406 28.765625 -17.640625 C 30.410156 -16.097656 31.441406 -14.039062 31.859375 -11.46875 L 32.546875 -6.921875 C 32.828125 -4.953125 33.148438 -3.613281 33.515625 -2.90625 C 33.890625 -2.195312 34.46875 -1.84375 35.25 -1.84375 C 35.78125 -1.84375 36.34375 -2.007812 36.9375 -2.34375 C 37.539062 -2.6875 38.101562 -3.117188 38.625 -3.640625 L 39.53125 -2.6875 C 38.507812 -1.53125 37.453125 -0.703125 36.359375 -0.203125 C 35.265625 0.285156 34.082031 0.53125 32.8125 0.53125 Z M 18.703125 -21.765625 C 21.273438 -21.765625 23.273438 -22.546875 24.703125 -24.109375 C 26.128906 -25.679688 26.84375 -28.003906 26.84375 -31.078125 L 26.84375 -32.1875 C 26.84375 -38.03125 23.53125 -40.953125 16.90625 -40.953125 L 12.78125 -40.953125 L 12.78125 -21.765625 Z M 18.703125 -21.765625 "/></g></g></g><g fill="#000000" fill-opacity="1"><g transform="translate(401.740149, 335.042201)"><g><path d="M 2.109375 -1.109375 L 6.96875 -1.90625 L 6.96875 -40.375 L 2.109375 -41.109375 L 2.109375 -42.28125 L 22.359375 -42.28125 C 26.234375 -42.28125 29.675781 -41.40625 32.6875 -39.65625 C 35.695312 -37.914062 38.046875 -35.453125 39.734375 -32.265625 C 41.429688 -29.078125 42.28125 -25.367188 42.28125 -21.140625 C 42.28125 -16.910156 41.429688 -13.203125 39.734375 -10.015625 C 38.046875 -6.828125 35.6875 -4.359375 32.65625 -2.609375 C 29.625 -0.867188 26.191406 0 22.359375 0 L 2.109375 0 Z M 22.359375 -1.265625 C 24.921875 -1.265625 27.195312 -1.863281 29.1875 -3.0625 C 31.1875 -4.257812 32.75 -6.046875 33.875 -8.421875 C 35 -10.804688 35.5625 -13.6875 35.5625 -17.0625 L 35.5625 -25.203125 C 35.5625 -28.585938 35 -31.457031 33.875 -33.8125 C 32.75 -36.175781 31.1875 -37.957031 29.1875 -39.15625 C 27.195312 -40.351562 24.921875 -40.953125 22.359375 -40.953125 L 12.78125 -40.953125 L 12.78125 -1.265625 Z M 22.359375 -1.265625 "/></g></g></g></svg>