<svg xmlns="http://www.w3.org/2000/svg" xmlns:xlink="http://www.w3.org/1999/xlink" width="600" zoomAndPan="magnify" viewBox="0 0 450 449.999984" height="600" preserveAspectRatio="xMidYMid meet" version="1.0"><defs><clipPath id="id1"><path d="M 146.265625 139.882812 L 303.765625 139.882812 L 303.765625 310.132812 L 146.265625 310.132812 Z M 146.265625 139.882812 " clip-rule="nonzero"/></clipPath></defs><g clip-path="url(#id1)"><path fill="#000000" d="M 300.890625 159.3125 C 285.878906 159.3125 272.765625 165.910156 259.992188 173.945312 C 256.398438 171.871094 252.886719 170.941406 249.589844 170.941406 C 244.21875 170.941406 239.4375 173.4375 235.972656 177.621094 C 232.332031 182.019531 230.640625 186.589844 228.90625 191.578125 C 226.160156 187.476562 223.789062 182.867188 221.761719 178.765625 C 211.441406 157.660156 193.210938 145.144531 165.976562 140.492188 L 163.015625 139.984375 L 162.886719 142.988281 C 162.59375 149.667969 163.351562 156.6875 165.128906 163.792969 C 161.535156 163.203125 157.855469 162.90625 154.050781 162.90625 C 151.511719 162.90625 148.890625 163.03125 146.265625 163.328125 C 153.542969 190.394531 176.296875 221.433594 204.800781 229.46875 C 191.476562 253.660156 187.671875 286.773438 216.644531 308.253906 L 219.011719 310.03125 L 220.492188 307.453125 C 232.078125 287.363281 226.453125 273.621094 218.039062 259.328125 C 226.203125 256.789062 244.050781 249.261719 252.085938 230.359375 C 255.46875 222.40625 256.609375 213.441406 255.382812 204.433594 C 257.03125 196.570312 259.148438 189.125 263.417969 183.203125 C 276.359375 165.445312 303.765625 159.394531 303.765625 159.394531 C 302.792969 159.355469 301.820312 159.3125 300.890625 159.3125 Z M 217.023438 181.089844 C 219.601562 186.335938 222.734375 192.382812 226.625 197.5 C 226.625 197.542969 226.667969 197.542969 226.667969 197.542969 C 226.539062 197.792969 226.453125 198.046875 226.328125 198.34375 C 225.863281 199.445312 225.355469 200.542969 224.804688 201.644531 C 221.632812 199.019531 219.773438 196.992188 215.332031 192.929688 C 210.003906 188.066406 207.253906 185.53125 205.816406 184.21875 C 195.917969 175.382812 184.078125 168.191406 170.5 164.851562 C 170.585938 164.46875 170.585938 164.046875 170.5 163.582031 C 168.9375 157.621094 168.175781 151.824219 168.089844 146.203125 C 191.859375 150.980469 207.886719 162.398438 217.023438 181.089844 Z M 152.484375 167.640625 C 152.992188 167.640625 153.5 167.640625 154.007812 167.640625 C 158.363281 167.640625 162.71875 168.066406 166.992188 168.953125 C 179.550781 171.53125 191.5625 177.875 202.644531 187.816406 C 203.449219 188.535156 204.714844 189.71875 206.703125 191.492188 C 208.101562 192.804688 209.875 194.410156 212.117188 196.441406 C 213.808594 198.007812 215.121094 199.234375 216.261719 200.332031 C 218.378906 202.320312 220.027344 203.925781 222.523438 205.914062 C 227.34375 209.804688 230.261719 212.132812 234.320312 213.273438 C 235.292969 213.527344 237.875 214.289062 241.003906 214.289062 C 242.316406 214.289062 243.582031 214.160156 244.769531 213.90625 C 243.921875 215.597656 242.78125 217.460938 241.089844 219.152344 C 236.773438 223.632812 231.402344 225.113281 226.707031 225.960938 C 224.042969 226.425781 221.335938 226.679688 218.628906 226.679688 C 214.953125 226.679688 211.1875 226.214844 207.464844 225.28125 C 207.421875 225.28125 207.378906 225.28125 207.339844 225.242188 C 207.296875 225.242188 207.253906 225.199219 207.210938 225.199219 C 181.707031 218.769531 160.816406 191.789062 152.484375 167.640625 Z M 217.363281 302.082031 C 196.425781 284.785156 197.019531 259.960938 205.730469 239.535156 C 206.449219 245.117188 208.101562 252.136719 211.738281 258.859375 C 212.03125 259.453125 212.371094 260.046875 212.753906 260.636719 C 220.535156 273.789062 225.863281 285.335938 217.363281 302.082031 Z M 215.417969 254.546875 C 210.765625 244.777344 210.382812 234.628906 210.46875 230.738281 C 213.175781 231.203125 215.925781 231.457031 218.714844 231.457031 C 221.632812 231.457031 224.636719 231.203125 227.640625 230.652344 C 231.65625 229.933594 238.847656 228.371094 244.554688 222.449219 C 247.855469 219.023438 249.546875 215.261719 250.519531 212.46875 C 250.394531 217.164062 249.589844 222.617188 247.179688 228.242188 C 239.609375 246.089844 222.140625 252.644531 215.417969 254.546875 Z M 259.570312 180.414062 C 254.792969 187.011719 252.507812 195.171875 250.941406 202.488281 C 250.605469 202.785156 250.351562 203.164062 250.222656 203.632812 C 246.882812 208.027344 243.667969 208.578125 241.46875 208.578125 C 238.042969 208.578125 233.855469 207.015625 229.035156 203.84375 C 229.628906 202.660156 230.175781 201.472656 230.726562 200.207031 C 231.742188 197.792969 232.546875 195.554688 233.304688 193.398438 C 235 188.617188 236.476562 184.472656 239.652344 180.667969 C 241.554688 178.382812 244.808594 175.675781 249.632812 175.675781 C 252.210938 175.675781 254.917969 176.480469 257.667969 178.046875 C 258.386719 178.46875 259.230469 178.679688 260.035156 178.679688 C 260.375 178.679688 260.671875 178.636719 261.007812 178.59375 C 260.5 179.144531 260.035156 179.78125 259.570312 180.414062 Z M 259.570312 180.414062 " fill-opacity="1" fill-rule="nonzero"/></g></svg>